<svg fill="#CCC" height="496pt" viewBox="-100 0 496 496" width="496pt" xmlns="http://www.w3.org/2000/svg"><path d="m176 224h-144v80h144zm-16 64h-112v-48h112zm0 0"/><path d="m208 217.761719v-9.761719c0-8.824219-7.175781-16-16-16h-8v-8c0-13.230469-10.769531-24-24-24s-24 10.769531-24 24v8h-32v-32h-16.382812l-7.226563-144.414062c-.445313-8.746094-7.636719-15.585938-16.390625-15.585938s-15.945312 6.839844-16.390625 15.59375l-7.21875 144.40625h-16.390625v32h-8c-8.824219 0-16 7.175781-16 16v116.6875c0 4.207031 1.710938 8.335938 4.6875 11.3125l11.3125 11.3125v124.6875c0 13.230469 10.769531 24 24 24h128c13.230469 0 24-10.769531 24-24v-124.6875l11.3125-11.3125c2.976562-2.976562 4.6875-7.105469 4.6875-11.3125v-14.449219l32-7.992187v-76.492188zm-56-33.761719c0-4.414062 3.585938-8 8-8s8 3.585938 8 8v8h-16zm-88.40625-167.609375h.8125l7.179688 143.609375h-15.179688zm-23.59375 159.609375h48v16h-48zm152 148.6875-16 16v131.3125c0 4.414062-3.585938 8-8 8h-128c-4.414062 0-8-3.585938-8-8v-131.3125l-16-16v-116.6875h176zm32-34.933594-16 4.007813v-59.515625l16 4.011718zm0 0"/><path d="m72 320c-13.230469 0-24 10.769531-24 24s10.769531 24 24 24 24-10.769531 24-24-10.769531-24-24-24zm0 32c-4.414062 0-8-3.585938-8-8s3.585938-8 8-8 8 3.585938 8 8-3.585938 8-8 8zm0 0"/><path d="m112 320h48v16h-48zm0 0"/><path d="m112 352h48v16h-48zm0 0"/><path d="m96 384h16v16h-16zm0 0"/><path d="m136 384h16v16h-16zm0 0"/><path d="m56 384h16v16h-16zm0 0"/><path d="m96 416h16v16h-16zm0 0"/><path d="m136 416h16v16h-16zm0 0"/><path d="m56 416h16v16h-16zm0 0"/><path d="m96 448h16v16h-16zm0 0"/><path d="m136 448h16v16h-16zm0 0"/><path d="m56 448h16v16h-16zm0 0"/><path d="m231.136719 150.167969c.582031-2.183594.863281-4.199219.863281-6.167969 0-13.230469-10.769531-24-24-24-1.96875 0-3.984375.28125-6.167969.863281l4.144531 15.457031c.808594-.214843 1.472657-.320312 2.023438-.320312 4.414062 0 8 3.585938 8 8 0 .550781-.105469 1.214844-.320312 2.023438zm0 0"/><path d="m208 88c-11.664062 0-22.871094 3.59375-32.425781 10.390625l9.28125 13.035156c6.824219-4.859375 14.824219-7.425781 23.144531-7.425781 22.054688 0 40 17.945312 40 40 0 8.320312-2.566406 16.320312-7.425781 23.144531l13.035156 9.28125c6.796875-9.554687 10.390625-20.761719 10.390625-32.425781 0-30.871094-25.128906-56-56-56zm0 0"/><path d="m208 56c-20.246094 0-40.023438 7.0625-55.6875 19.878906l10.144531 12.378906c12.800781-10.480468 28.984375-16.257812 45.542969-16.257812 39.703125 0 72 32.296875 72 72 0 16.558594-5.777344 32.742188-16.257812 45.542969l12.378906 10.144531c12.816406-15.664062 19.878906-35.441406 19.878906-55.6875 0-48.519531-39.480469-88-88-88zm0 0"/></svg>
